<svg xmlns="http://www.w3.org/2000/svg" version="1.1" xmlns:xlink="http://www.w3.org/1999/xlink" xmlns:svgjs="http://svgjs.dev/svgjs" width="390" height="800" preserveAspectRatio="none" viewBox="0 0 390 800"><g mask="url(&quot;#SvgjsMask1006&quot;)" fill="none"><rect width="390" height="800" x="0" y="0" fill="#0e2a47"></rect><path d="M116.52 117.75a1.78 1.78 0 1 0-2.43 2.6z" fill="#e73635"></path><path d="M53.72 519.02L68.49 519.02L68.49 545.18L53.72 545.18z" fill="#037b0b"></path><path d="M304.54 111.38L319.45 111.38L319.45 122.43L304.54 122.43z" stroke="#e73635"></path><path d="M33.01 596.39 a30.34 30.34 0 1 0 60.68 0 a30.34 30.34 0 1 0 -60.68 0z" fill="#037b0b"></path><path d="M359.02 705.38L373.1 705.38L373.1 717.33L359.02 717.33z" stroke="#037b0b"></path><path d="M179.35 754.89L201.18 754.89L201.18 776.72L179.35 776.72z" stroke="#d3b714"></path><path d="M289.95 498.39L295.24 498.39L295.24 503.68L289.95 503.68z" fill="#d3b714"></path><path d="M156.82 258.92L184.7 258.92L184.7 292.83L156.82 292.83z" stroke="#d3b714"></path><path d="M298.94 80.74a1.84 1.84 0 1 0-3.47-1.25z" stroke="#d3b714"></path><path d="M128.77 82.87L165.51 82.87L165.51 119.61L128.77 119.61z" fill="#e73635"></path><path d="M303.27 418.42a8.15 8.15 0 1 0 4.84-15.57z" stroke="#037b0b"></path><path d="M73.27 623.98 a11.8 11.8 0 1 0 23.6 0 a11.8 11.8 0 1 0 -23.6 0z" stroke="#037b0b"></path><path d="M306.1 7.27L320.91 7.27L320.91 8.44L306.1 8.44z" stroke="#e73635"></path><path d="M292.12 53.43 a17.75 17.75 0 1 0 35.5 0 a17.75 17.75 0 1 0 -35.5 0z" fill="#037b0b"></path><path d="M189.16 174.01 a8.77 8.77 0 1 0 17.54 0 a8.77 8.77 0 1 0 -17.54 0z" stroke="#d3b714"></path><path d="M73.15 294.45 a27.28 27.28 0 1 0 54.56 0 a27.28 27.28 0 1 0 -54.56 0z" stroke="#037b0b"></path><path d="M12.58 292.33L35.93 292.33L35.93 319.37L12.58 319.37z" stroke="#d3b714"></path><path d="M227.18 714.32a17.43 17.43 0 1 0 20.9 27.9z" fill="#037b0b"></path><path d="M109.06 391.86a18.14 18.14 0 1 0-34.53-11.13z" fill="#037b0b"></path><path d="M155.59 339.39L187.21 339.39L187.21 343.39L155.59 343.39z" fill="#e73635"></path><path d="M175.98 495.63L177.76 495.63L177.76 497.41L175.98 497.41z" stroke="#037b0b"></path><path d="M108.92 247.69L142.42 247.69L142.42 255.38L108.92 255.38z" stroke="#e73635"></path><path d="M335.01 166.48 a36.32 36.32 0 1 0 72.64 0 a36.32 36.32 0 1 0 -72.64 0z" stroke="#d3b714"></path><path d="M248.73 465.96L255.42 465.96L255.42 496.46L248.73 496.46z" stroke="#d3b714"></path><path d="M347.07 170.56L370.81 170.56L370.81 194.3L347.07 194.3z" stroke="#e73635"></path><path d="M375.12 721.38 a0.97 0.97 0 1 0 1.94 0 a0.97 0.97 0 1 0 -1.94 0z" stroke="#d3b714"></path></g><defs><mask id="SvgjsMask1006"><rect width="390" height="800" fill="#ffffff"></rect></mask></defs></svg>